<svg width="132" height="59" fill="none" xmlns="http://www.w3.org/2000/svg"><path d="M.418 41.898L18.611 1.082h9.329l18.25 40.816h-9.912L21.351 5.863h3.732L10.098 41.898H.418zm9.097-8.746l2.507-7.172h20.99l2.566 7.172H9.515zm40.91 8.746V1.082h19.942c5.13 0 8.98.972 11.545 2.916 2.604 1.943 3.906 4.509 3.906 7.696 0 2.138-.525 4.004-1.574 5.598-1.05 1.555-2.488 2.76-4.315 3.615-1.827.855-3.926 1.283-6.297 1.283l1.108-2.39c2.565 0 4.84.427 6.822 1.282 1.982.816 3.518 2.04 4.606 3.673 1.127 1.633 1.691 3.635 1.691 6.006 0 3.499-1.38 6.239-4.14 8.222-2.76 1.943-6.822 2.915-12.186 2.915H50.425zm9.388-7.114h11.02c2.449 0 4.295-.388 5.54-1.166 1.282-.816 1.923-2.099 1.923-3.848 0-1.71-.64-2.974-1.924-3.79-1.244-.855-3.09-1.283-5.539-1.283h-11.72v-6.88H69.2c2.294 0 4.043-.39 5.248-1.167 1.244-.816 1.866-2.04 1.866-3.673 0-1.594-.622-2.78-1.866-3.557-1.205-.816-2.954-1.224-5.248-1.224h-9.387v26.588zm54.731 7.814c-3.149 0-6.084-.506-8.805-1.516-2.682-1.05-5.014-2.527-6.997-4.432a20.807 20.807 0 01-4.665-6.705c-1.088-2.566-1.632-5.384-1.632-8.455 0-3.07.544-5.89 1.633-8.455a20.806 20.806 0 014.664-6.705c2.022-1.905 4.373-3.363 7.056-4.373 2.682-1.05 5.617-1.575 8.804-1.575 3.537 0 6.725.622 9.563 1.866 2.876 1.205 5.286 2.993 7.23 5.365l-6.064 5.597c-1.4-1.594-2.954-2.78-4.665-3.557-1.71-.816-3.576-1.224-5.597-1.224-1.905 0-3.654.31-5.248.933a11.892 11.892 0 00-4.14 2.682c-1.166 1.166-2.08 2.546-2.741 4.14-.622 1.594-.933 3.362-.933 5.306s.311 3.712.933 5.306c.661 1.594 1.575 2.974 2.741 4.14a11.893 11.893 0 004.14 2.682c1.594.622 3.343.933 5.248.933 2.021 0 3.887-.389 5.597-1.166 1.711-.816 3.265-2.04 4.665-3.673l6.064 5.597c-1.944 2.371-4.354 4.179-7.23 5.423-2.838 1.244-6.045 1.866-9.621 1.866zM2.527 58.21a5.17 5.17 0 01-1.427-.195c-.456-.136-.822-.31-1.1-.523l.488-1.082a3.592 3.592 0 002.049.647c.283 0 .51-.026.682-.08a.834.834 0 00.39-.24.529.529 0 00.124-.345.456.456 0 00-.195-.39c-.13-.1-.301-.18-.514-.24a7.767 7.767 0 00-.71-.177c-.254-.06-.51-.13-.771-.213a3.292 3.292 0 01-.7-.32 1.61 1.61 0 01-.524-.514c-.13-.212-.195-.484-.195-.815 0-.355.095-.677.284-.967.195-.296.485-.53.869-.7.39-.178.878-.267 1.463-.267.39 0 .775.048 1.153.142.378.089.712.225 1.002.408l-.443 1.091a3.632 3.632 0 00-.87-.364 3.093 3.093 0 00-.85-.124c-.279 0-.506.033-.683.098-.178.065-.305.15-.382.257a.567.567 0 00-.115.355c0 .16.065.29.195.39a1.6 1.6 0 00.514.23c.213.06.447.119.7.178.261.059.518.127.772.204.26.077.497.18.71.31.213.13.384.302.514.514.136.213.204.482.204.807 0 .35-.097.669-.292.958-.196.29-.488.523-.878.7-.385.178-.872.267-1.464.267zm6.373 0c-.88 0-1.569-.245-2.065-.736-.497-.49-.745-1.191-.745-2.102v-3.476h1.436v3.423c0 .591.121 1.017.364 1.277.242.26.582.39 1.02.39.437 0 .777-.13 1.02-.39.242-.26.363-.686.363-1.277v-3.423h1.419v3.476c0 .91-.248 1.611-.745 2.102-.497.49-1.185.736-2.066.736zm4.232-.107v-6.207h2.687c.555 0 1.034.091 1.436.275.402.177.713.434.931.771.22.337.329.74.329 1.206 0 .461-.11.86-.329 1.197a2.12 2.12 0 01-.93.78c-.403.178-.882.267-1.437.267h-1.89l.64-.647v2.358h-1.437zm1.436-2.199l-.638-.683h1.809c.443 0 .774-.094.993-.283.219-.19.328-.453.328-.79 0-.343-.11-.609-.328-.798-.219-.189-.55-.284-.993-.284h-1.81l.64-.682v3.52zm4.972 2.199v-6.207h2.687c.556 0 1.035.091 1.437.275.402.177.712.434.931.771.219.337.328.74.328 1.206 0 .461-.11.86-.328 1.197a2.13 2.13 0 01-.931.78c-.402.178-.881.267-1.437.267h-1.889l.639-.647v2.358H19.54zm1.437-2.199l-.639-.683h1.81c.443 0 .774-.094.993-.283.218-.19.328-.453.328-.79 0-.343-.11-.609-.328-.798-.22-.189-.55-.284-.993-.284h-1.81l.639-.682v3.52zm4.972 2.199v-6.207h1.436v5.037h3.113v1.17h-4.55zm6.254 0v-2.536l.328.87-2.731-4.541h1.525l2.093 3.485h-.878l2.102-3.485h1.41l-2.732 4.54.32-.869v2.536h-1.437zm9.932.107c-.479 0-.925-.077-1.339-.23a3.166 3.166 0 01-1.774-1.694A3.26 3.26 0 0138.774 55c0-.467.083-.896.248-1.286.172-.39.408-.73.71-1.02.307-.29.665-.511 1.073-.665.408-.16.854-.24 1.339-.24.538 0 1.023.095 1.454.284a2.8 2.8 0 011.1.816l-.922.851a2.103 2.103 0 00-.71-.54 1.95 1.95 0 00-.851-.187c-.29 0-.556.047-.798.142a1.81 1.81 0 00-.63.408 1.92 1.92 0 00-.417.63 2.203 2.203 0 00-.142.807c0 .295.048.564.142.807.1.242.24.452.417.63.178.177.387.313.63.407.242.095.508.142.798.142.307 0 .591-.059.851-.177.26-.124.497-.31.71-.559l.922.851a2.87 2.87 0 01-1.1.825 3.61 3.61 0 01-1.463.284zm7.79-6.314h1.437v6.207h-1.437v-6.207zm-2.82 6.207h-1.437v-6.207h1.437v6.207zm2.926-2.545h-3.033v-1.215h3.033v1.215zm1.983 2.545l2.767-6.207h1.42l2.775 6.207h-1.508l-2.27-5.48h.568l-2.28 5.48h-1.472zm1.384-1.33l.381-1.09h3.193l.39 1.09h-3.964zm6.222 1.33v-6.207h1.436v6.207H59.62zm2.91 0v-6.207h1.188l3.662 4.47h-.576v-4.47h1.419v6.207h-1.18l-3.67-4.469h.576v4.47h-1.42zm12.644.107c-.479 0-.925-.077-1.34-.23a3.166 3.166 0 01-1.774-1.694A3.26 3.26 0 0171.814 55c0-.467.083-.896.248-1.286.172-.39.408-.73.71-1.02.307-.29.665-.511 1.073-.665.408-.16.854-.24 1.339-.24.538 0 1.023.095 1.454.284a2.8 2.8 0 011.1.816l-.922.851a2.103 2.103 0 00-.71-.54 1.95 1.95 0 00-.851-.187c-.29 0-.556.047-.798.142a1.81 1.81 0 00-.63.408 1.92 1.92 0 00-.417.63 2.203 2.203 0 00-.142.807c0 .295.048.564.142.807.1.242.24.452.417.63.177.177.387.313.63.407.242.095.508.142.798.142.307 0 .591-.059.851-.177.26-.124.497-.31.71-.559l.922.851a2.87 2.87 0 01-1.1.825 3.61 3.61 0 01-1.463.284zm6.418 0c-.49 0-.946-.08-1.365-.24a3.28 3.28 0 01-1.082-.673 3.164 3.164 0 01-.71-1.02A3.235 3.235 0 0178.187 55c0-.462.083-.887.248-1.277a3.1 3.1 0 01.718-1.02 3.27 3.27 0 011.082-.674 3.71 3.71 0 011.348-.24c.491 0 .94.08 1.348.24.414.16.772.384 1.073.674A3.1 3.1 0 0184.98 55c0 .46-.086.89-.257 1.285a3.1 3.1 0 01-.719 1.02 3.253 3.253 0 01-1.073.666c-.408.16-.854.239-1.339.239zm-.009-1.224c.278 0 .532-.047.763-.142a1.81 1.81 0 001.029-1.038c.1-.242.15-.51.15-.806 0-.296-.05-.565-.15-.807a1.81 1.81 0 00-.408-.63 1.74 1.74 0 00-.612-.408 2.059 2.059 0 00-.772-.142c-.278 0-.535.047-.771.142a1.85 1.85 0 00-.612.408 1.92 1.92 0 00-.417.63 2.203 2.203 0 00-.142.807c0 .29.047.558.142.807.1.242.237.452.408.63.177.177.384.313.62.407.237.095.494.142.772.142zm4.477 1.117v-6.207h1.188l3.662 4.47h-.576v-4.47h1.419v6.207h-1.18l-3.671-4.469h.576v4.47H86.06zm9.201.107a5.17 5.17 0 01-1.428-.195c-.455-.136-.821-.31-1.1-.523l.489-1.082a3.593 3.593 0 002.048.647c.284 0 .511-.026.683-.08a.834.834 0 00.39-.24.529.529 0 00.124-.345.456.456 0 00-.195-.39c-.13-.1-.301-.18-.514-.24a7.769 7.769 0 00-.71-.177 10.37 10.37 0 01-.771-.213 3.294 3.294 0 01-.7-.32 1.61 1.61 0 01-.524-.514c-.13-.212-.195-.484-.195-.815 0-.355.094-.677.284-.967.195-.296.484-.53.869-.7.39-.178.878-.267 1.463-.267.39 0 .775.048 1.153.142.378.089.712.225 1.002.408l-.444 1.091a3.63 3.63 0 00-.868-.364 3.093 3.093 0 00-.852-.124c-.278 0-.505.033-.683.098-.177.065-.304.15-.381.257a.567.567 0 00-.115.355c0 .16.065.29.195.39a1.6 1.6 0 00.514.23c.213.06.447.119.7.178.26.059.518.127.772.204.26.077.497.18.71.31.212.13.384.302.514.514.136.213.204.482.204.807 0 .35-.098.669-.293.958-.195.29-.487.523-.878.7-.384.178-.872.267-1.463.267zm6.374 0c-.881 0-1.57-.245-2.067-.736-.496-.49-.745-1.191-.745-2.102v-3.476h1.437v3.423c0 .591.121 1.017.364 1.277.242.26.582.39 1.019.39.438 0 .778-.13 1.02-.39.243-.26.364-.686.364-1.277v-3.423h1.419v3.476c0 .91-.249 1.611-.745 2.102-.497.49-1.185.736-2.066.736zm4.23-.107v-6.207h1.437v5.037h3.113v1.17h-4.55zm6.058 0v-5.037h-1.986v-1.17h5.409v1.17h-1.986v5.037h-1.437zm4.196 0v-6.207h1.437v6.207h-1.437zm2.91 0v-6.207h1.188l3.663 4.47h-.577v-4.47h1.419v6.207h-1.179l-3.672-4.469h.577v4.47h-1.419zm10.159.107a3.86 3.86 0 01-1.356-.23 3.296 3.296 0 01-1.073-.675 3.167 3.167 0 01-.71-1.02 3.268 3.268 0 01-.248-1.285c0-.467.083-.896.248-1.286a3.113 3.113 0 011.8-1.685c.414-.16.869-.24 1.366-.24.55 0 1.043.092 1.481.275.443.184.816.45 1.117.798l-.922.852a2.196 2.196 0 00-.736-.523 2.115 2.115 0 00-.869-.178c-.302 0-.576.047-.825.142-.248.095-.464.23-.647.408a1.934 1.934 0 00-.417.63 2.194 2.194 0 00-.142.807c0 .29.047.555.142.798.101.242.24.455.417.638.183.178.396.314.638.408.249.095.521.142.816.142.284 0 .559-.044.825-.133.272-.095.535-.251.789-.47l.816 1.038a3.74 3.74 0 01-1.179.585 4.524 4.524 0 01-1.331.204zm1.198-.976v-2.332h1.312v2.519l-1.312-.187z" fill="#fff"/></svg>