<svg width="353" height="84" fill="none" xmlns="http://www.w3.org/2000/svg"><path d="M351.185-8.561c-14.534 24.072-30.511 47.947-53.179 65.104-8.281 6.267-16.982 11.674-26.487 15.89-11.115 4.933-23.707 10.625-36.162 9.93-18.006-1.007-36.778-13.011-52.474-20.673-41.135-20.078-78.912-46.705-120.857-65.1-16.706-7.325-33.98-13.844-51.465-19.067-7.34-2.193-14.02-3.57-21.648-3.198-22.573 1.104-43.914 4.591-64.846 13.422-26.316 11.101-52.428 27.995-72.826 48.008-6.795 6.667-14.899 13.357-20.636 20.936" stroke="#3A3611" stroke-width="2" stroke-linecap="round"/></svg>