<svg width="476" height="559" fill="none" xmlns="http://www.w3.org/2000/svg"><path d="M470.159 560.301c.683-15.023 4.666-28.765 3.854-44.179-1.475-28.035-21.317-58.175-43.882-74.422-20.686-14.893-46.01-21.367-69.975-28.76-40.875-12.611-82.088-21.533-121.714-38.101-13.675-5.718-26.645-12.701-38.842-21.126-26.351-18.201-42.518-47.545-57.67-75.015-13.555-24.576-23.834-50.082-32.689-76.646-10.42-31.259-23.56-61.255-37.656-91.026-14.814-31.288-30.47-64.545-57.744-87.098C2.722 14.733-9.753 8.35-22.184 1.246" stroke="#3A3611" stroke-width="2" stroke-linecap="round"/></svg>