<svg width="1121" height="748" fill="none" xmlns="http://www.w3.org/2000/svg"><mask id="a" style="mask-type:alpha" maskUnits="userSpaceOnUse" x="0" y="0" width="1121" height="748"><path d="M1120.85 15.638c0-8.285-6.71-15-15-15H0v747.329h1105.85c8.29 0 15-6.716 15-15V15.637z" fill="#232626"/></mask><g mask="url(#a)" stroke="#3A3611" stroke-width="2" stroke-linecap="round"><path d="M470.159 749.301c.683-15.023 4.666-28.765 3.854-44.179-1.475-28.035-21.317-58.175-43.882-74.422-20.686-14.893-46.01-21.367-69.975-28.76-40.875-12.611-82.088-21.533-121.714-38.101-13.675-5.718-26.645-12.701-38.842-21.126-26.351-18.201-42.518-47.545-57.67-75.015-13.555-24.576-23.834-50.082-32.689-76.646-10.42-31.259-23.56-61.255-37.656-91.026-14.814-31.288-30.47-64.545-57.744-87.098-11.119-9.195-23.594-15.579-36.025-22.682M351.185-8.561c-14.534 24.072-30.511 47.947-53.179 65.104-8.281 6.267-16.982 11.674-26.487 15.89-11.115 4.933-23.707 10.625-36.162 9.93-18.006-1.007-36.778-13.011-52.474-20.673-41.135-20.078-78.912-46.705-120.857-65.1-16.706-7.325-33.98-13.844-51.465-19.067-7.34-2.193-14.02-3.57-21.648-3.198-22.573 1.104-43.914 4.591-64.846 13.422-26.316 11.101-52.428 27.995-72.826 48.008-6.795 6.667-14.899 13.357-20.636 20.936"/></g></svg>