<svg width="476" height="735" fill="none" xmlns="http://www.w3.org/2000/svg"><path d="M5.841 733.932c-.683-15.023-4.666-28.766-3.854-44.179 1.475-28.035 21.317-58.176 43.882-74.422 20.686-14.894 46.01-21.368 69.975-28.761 40.875-12.611 82.088-21.532 121.714-38.101 13.675-5.717 26.644-12.701 38.842-21.126 26.351-18.201 42.518-47.545 57.67-75.015 13.555-24.576 23.834-50.081 32.689-76.646 10.42-31.259 23.56-61.254 37.656-91.026 14.814-31.288 30.47-64.545 57.744-87.098 11.119-9.194 23.594-15.579 36.025-22.682M124.815-23.93c14.534 24.071 30.51 47.946 53.179 65.103 8.28 6.268 16.982 11.674 26.487 15.891 11.115 4.932 23.707 10.625 36.162 9.929 18.006-1.007 36.778-13.011 52.474-20.673 41.135-20.078 78.912-46.705 120.857-65.099 16.706-7.326 33.98-13.844 51.465-19.068 7.34-2.193 14.02-3.57 21.648-3.197 22.573 1.103 43.914 4.59 64.846 13.421C578.249-16.52 604.361.373 624.759 20.386c6.795 6.666 14.899 13.357 20.636 20.935" stroke="#3A3611" stroke-width="2" stroke-linecap="round"/></svg>