<svg width="476" height="735" viewBox="0 0 476 735" fill="none" xmlns="http://www.w3.org/2000/svg">
<path d="M5.84118 733.932C5.15831 718.909 1.17543 705.166 1.98664 689.753C3.46217 661.718 23.3042 631.577 45.869 615.331C66.5546 600.437 91.879 593.963 115.844 586.57C156.719 573.959 197.932 565.038 237.558 548.469C251.233 542.752 264.202 535.768 276.4 527.343C302.751 509.142 318.918 479.798 334.07 452.328C347.625 427.752 357.904 402.247 366.759 375.682C377.179 344.423 390.319 314.428 404.415 284.656C419.229 253.368 434.885 220.111 462.159 197.558C473.278 188.364 485.753 181.979 498.184 174.876" stroke="#3A3611" stroke-width="2" stroke-linecap="round"/>
<path d="M124.815 -23.9307C139.349 0.141039 155.325 24.0162 177.994 41.1733C186.274 47.4406 194.976 52.847 204.481 57.0643C215.596 61.9963 228.188 67.6887 240.643 66.9926C258.649 65.9862 277.421 53.982 293.117 46.3204C334.252 26.242 372.029 -0.384902 413.974 -18.7788C430.68 -26.1048 447.954 -32.6233 465.439 -37.8467C472.779 -40.0397 479.459 -41.4175 487.087 -41.0444C509.66 -39.9406 531.001 -36.4531 551.933 -27.6228C578.249 -16.5213 604.361 0.372854 624.759 20.3857C631.554 27.0524 639.658 33.7428 645.395 41.3214" stroke="#3A3611" stroke-width="2" stroke-linecap="round"/>
</svg>
